<?xml version="1.0" encoding="utf-8"?>
<!-- Generator: Adobe Illustrator 23.0.0, SVG Export Plug-In . SVG Version: 6.00 Build 0)  -->
<svg version="1.1" id="Layer_1" xmlns="http://www.w3.org/2000/svg" xmlns:xlink="http://www.w3.org/1999/xlink" x="0px" y="0px"
	 viewBox="0 0 14.9 23.7" style="enable-background:new 0 0 14.9 23.7;" xml:space="preserve">
<style type="text/css">
	.st0{fill:#A8ABBE;}
</style>
<path class="st0" d="M5.4,23.3c-2.4,0-4.5-1.7-4.9-4.1c-0.1-0.3-0.1-0.6-0.1-1c0-1.4,0-5.2,0-5.2l0-0.3l0-1.8c0-1.3,0-2.6,0-4
	c0.1-3.5,2.8-6.4,6.4-6.6c0.2,0,0.4,0,0.5,0c3.4,0,6.2,2.3,6.9,5.5c0.1,0.4,0.1,0.9,0.1,1.4c0,1.4,0,2.9,0,4.3l0,2.9
	c0,0.6-0.3,0.8-0.5,0.8c-0.2,0.1-0.4,0.1-0.6,0.1c-0.2,0-0.5-0.1-0.7-0.2c-0.2-0.2-0.3-0.4-0.3-0.7l0-2.2c0-1.7,0-3.4,0-5.1
	c0-2.5-1.9-4.7-4.5-5c-0.2,0-0.4,0-0.6,0C5.1,2.2,3,3.9,2.5,6.1C2.5,6.4,2.4,6.8,2.4,7.2l0,11.2c0,1.5,1.2,2.8,2.7,3
	c0.1,0,0.1,0,0.2,0c1.5,0,2.8-1.1,3-2.6c0-0.4,0-0.7,0-1.1l0-10.3c0-0.5-0.2-0.9-0.6-1C7.7,6.3,7.5,6.3,7.4,6.3
	c-0.5,0-0.9,0.4-1,0.9c0,0.2,0,0.4,0,0.6l0,2.1c0,1.5,0,3,0,4.5c0,0.3-0.1,0.6-0.3,0.8c-0.2,0.2-0.4,0.3-0.7,0.3
	c-0.2,0-0.3,0-0.5-0.1c-0.3-0.1-0.5-0.4-0.5-0.7l0-1.9c0-1.9,0-3.8,0-5.6c0-1.5,1.4-2.7,3-2.7c0.4,0,0.8,0.1,1.2,0.3
	c1.2,0.5,1.8,1.4,1.8,2.8c0,1.6,0,3.2,0,4.8l0,3.3c0,1,0,1.9,0,2.9c-0.1,2-1,3.5-2.8,4.4C6.9,23.1,6.1,23.3,5.4,23.3z"/>
</svg>
