<?xml version="1.0" encoding="utf-8"?>
<!-- Generator: Adobe Illustrator 23.0.0, SVG Export Plug-In . SVG Version: 6.00 Build 0)  -->
<svg version="1.1" id="Layer_1" xmlns="http://www.w3.org/2000/svg" xmlns:xlink="http://www.w3.org/1999/xlink" x="0px" y="0px"
	 viewBox="0 0 16.2 13.2" style="enable-background:new 0 0 16.2 13.2;" xml:space="preserve">
<style type="text/css">
	.st0{fill:#788195;}
</style>
<g>
	<g>
		<path class="st0" d="M15.7,0.5c-0.3-0.3-0.6-0.4-0.9-0.4H1.5c-0.4,0-0.7,0.1-0.9,0.4c-0.3,0.3-0.4,0.6-0.4,1v10.3
			c0,0.4,0.1,0.7,0.4,1c0.3,0.3,0.6,0.4,0.9,0.4h13.3c0.4,0,0.7-0.1,0.9-0.4c0.3-0.3,0.4-0.6,0.4-1V1.5C16.1,1.1,16,0.8,15.7,0.5z
			 M15.1,11.8c0,0.1,0,0.1-0.1,0.2c-0.1,0.1-0.1,0.1-0.2,0.1H1.5c-0.1,0-0.1,0-0.2-0.1c-0.1-0.1-0.1-0.1-0.1-0.2V6.6h13.9V11.8z
			 M15.1,3.4H1.2V1.5c0-0.1,0-0.1,0.1-0.2c0.1-0.1,0.1-0.1,0.2-0.1h13.3c0.1,0,0.1,0,0.2,0.1c0.1,0.1,0.1,0.1,0.1,0.2V3.4z M4.4,9.9
			H2.3V11h2.1V9.9z M8.7,9.9H5.5V11h3.2V9.9z"/>
	</g>
</g>
</svg>
